<svg version="1.1" id="Layer_1" xmlns="http://www.w3.org/2000/svg" xmlns:xlink="http://www.w3.org/1999/xlink" x="0px" y="0px"
	 width="100%" viewBox="0 0 1024 1024" enable-background="new 0 0 1024 1024" xml:space="preserve">
<path fill="#000000" opacity="1.000000" stroke="none" 
	d="
M400.117310,741.311218 
	C376.368805,749.187439 352.269714,752.006958 327.874084,750.116455 
	C303.806366,748.251282 281.056488,741.701294 261.986908,725.771729 
	C254.863846,719.821472 249.028870,712.831482 244.980591,704.437561 
	C244.049255,702.506470 242.805099,700.345093 245.091766,698.557922 
	C247.373520,696.774780 249.425171,697.939087 251.397522,699.459045 
	C267.883484,712.163391 286.729218,716.584900 308.019501,715.461487 
	C306.739471,713.803650 305.905396,712.531555 304.886108,711.431030 
	C268.035889,671.644714 246.576492,624.501648 237.469635,571.326660 
	C233.739975,549.549133 232.406830,527.591370 233.895981,505.685760 
	C238.072174,444.253693 259.526581,389.465088 299.462067,342.293182 
	C343.319794,290.488373 399.320160,259.937836 465.789398,247.925018 
	C468.889832,247.364670 472.041962,246.740005 475.166870,246.755966 
	C478.867401,246.774841 480.416443,245.001556 480.478882,241.683548 
	C480.610565,234.686661 480.578278,227.686646 480.605438,220.687881 
	C480.619873,216.964844 478.045837,216.427505 475.177002,216.385864 
	C470.011536,216.310883 464.819672,216.622238 459.684052,216.209396 
	C447.261414,215.210754 439.735565,208.018768 438.040466,194.736465 
	C437.185699,188.038559 436.978699,181.123672 438.650696,174.374863 
	C441.065033,164.629471 449.064453,157.750046 459.147278,157.709290 
	C495.312286,157.563141 531.478699,157.555313 567.643677,157.717010 
	C578.270630,157.764526 587.196106,167.197754 587.335083,177.785522 
	C587.398560,182.617905 587.035767,187.476013 587.408630,192.280365 
	C588.455811,205.773026 579.326782,215.565765 564.008545,216.300323 
	C559.518250,216.515640 555.010315,216.402344 550.510864,216.372162 
	C546.791565,216.347214 545.123535,217.911789 545.250854,221.831772 
	C545.472595,228.657867 545.386353,235.496933 545.295471,242.328781 
	C545.257568,245.178391 546.228455,246.344498 549.263855,246.719849 
	C598.371765,252.792679 642.963440,270.145844 682.377136,300.335632 
	C687.920593,304.581726 687.967957,304.520660 692.898987,299.642700 
	C693.372803,299.173950 693.847595,298.705627 694.306580,298.222443 
	C696.938232,295.451843 700.898804,293.061829 701.840210,289.801178 
	C702.904297,286.115845 697.707153,284.445587 695.604858,281.592957 
	C691.664917,276.246582 691.711914,271.019257 696.178833,266.220520 
	C699.015808,263.172821 701.950378,260.205231 704.983276,257.352753 
	C712.765503,250.033539 722.264282,250.067856 729.919922,257.613220 
	C740.363708,267.906616 750.700134,278.310547 760.981934,288.766052 
	C768.044800,295.948242 768.154663,304.487671 761.401794,311.904388 
	C758.935486,314.613129 756.310913,317.182953 753.682434,319.737885 
	C747.231995,326.008026 741.240906,326.292603 734.213501,320.755402 
	C733.706848,320.356171 733.104065,320.078888 732.384155,319.648010 
	C727.906860,322.992310 724.343323,327.176575 720.534546,331.096283 
	C718.389160,333.304138 720.422363,334.725037 721.670105,336.140472 
	C737.849854,354.493713 751.281189,374.703949 762.175232,396.576416 
	C776.446167,425.229065 786.249023,455.398346 790.080627,487.176697 
	C798.628845,558.073486 784.474609,623.830139 743.962280,683.282227 
	C737.476685,692.799866 730.147949,701.647095 722.411682,710.171021 
	C721.228149,711.474976 719.549316,712.525574 719.256836,714.841125 
	C724.535645,716.924377 729.834900,715.026062 734.892578,714.374451 
	C746.171753,712.921143 756.939880,709.400574 766.877380,703.649170 
	C769.347656,702.219543 771.678101,700.631958 773.612915,698.531006 
	C775.092102,696.924866 776.789673,695.885742 778.893738,697.006653 
	C781.474854,698.381775 780.665222,700.774353 779.990295,702.767456 
	C778.537415,707.058044 776.168823,710.895508 773.470825,714.522156 
	C757.629944,735.815857 735.468933,745.701111 709.995728,749.289673 
	C666.411926,755.429504 626.321411,743.461365 587.475952,725.245667 
	C571.646240,717.822632 555.725098,710.627625 538.647644,706.412720 
	C513.856018,700.293701 490.086548,704.338867 466.985504,713.864502 
	C449.903046,720.908386 433.048737,728.503784 416.023804,735.690002 
	C410.972443,737.822266 405.687164,739.400208 400.117310,741.311218 
M648.641602,329.900146 
	C593.798767,293.000366 533.694214,280.943268 468.850067,292.425537 
	C438.891174,297.730530 410.552216,308.016510 385.215027,325.046783 
	C323.433777,366.572693 286.864532,423.962891 278.212708,498.373840 
	C275.994049,517.455261 276.453735,536.654419 278.630463,555.671753 
	C281.605255,581.661743 289.568756,606.299133 301.596069,629.554016 
	C306.481354,638.999756 309.956146,649.888611 318.077423,656.739441 
	C349.146454,682.948181 384.402924,690.705078 423.314362,677.189453 
	C440.345398,671.273865 455.509094,661.219910 471.941162,653.897949 
	C495.815063,643.260010 519.849792,641.386108 544.609619,650.845642 
	C558.045532,655.978821 570.757202,662.535156 583.391479,669.245483 
	C607.947388,682.287537 633.586731,687.725220 660.931885,680.587708 
	C684.629089,674.402344 705.651062,664.803711 718.301819,641.376892 
	C740.927063,599.479431 752.503479,555.424194 748.751465,507.694977 
	C746.852234,483.534393 741.825134,460.085358 732.835815,437.529083 
	C715.360840,393.679901 687.690979,357.789520 648.641602,329.900146 
z"/>
<path fill="#000000" opacity="1.000000" stroke="none" 
	d="
M606.708008,800.583862 
	C591.731079,796.631897 578.195923,790.187500 564.707336,783.663940 
	C549.570251,776.343201 533.802307,771.169495 516.919189,770.579834 
	C501.252350,770.032654 486.210815,773.455627 471.707458,779.381897 
	C457.375946,785.237976 443.853699,792.982178 429.060547,797.743774 
	C382.872620,812.610718 341.495239,802.811951 304.046753,773.184937 
	C302.146484,771.681580 299.667511,770.008911 301.200226,767.028931 
	C302.355591,764.782593 304.737946,765.415527 306.611908,765.897827 
	C339.106567,774.262085 370.919830,770.465027 402.429016,760.704529 
	C423.028992,754.323303 442.122528,744.354919 461.854340,735.902954 
	C479.432129,728.373596 497.518799,722.934326 516.932495,723.656799 
	C534.685486,724.317566 551.296875,729.489685 567.203247,737.026245 
	C587.371704,746.582153 607.469421,756.251343 629.048096,762.371887 
	C650.865662,768.560120 673.118713,770.867004 695.687683,769.489380 
	C703.434326,769.016479 711.216064,767.942322 718.817017,765.997681 
	C720.956177,765.450500 723.686096,764.440613 724.976562,767.335876 
	C726.176819,770.028625 724.069031,771.671631 722.233398,773.141968 
	C700.935486,790.201233 676.969360,800.627563 649.629639,803.554504 
	C635.170288,805.102539 621.121521,803.979126 606.708008,800.583862 
z"/>
<path fill="#000000" opacity="1.000000" stroke="none" 
	d="
M525.917725,852.323059 
	C483.124695,853.615234 442.283051,846.706787 403.105988,830.483459 
	C401.878296,829.975098 400.635437,829.475647 399.480164,828.828308 
	C398.422333,828.235718 397.662109,827.319702 397.897400,825.974243 
	C398.173767,824.394104 399.323944,823.776367 400.766846,823.716675 
	C425.990997,822.672546 447.780548,811.379333 469.862854,800.803772 
	C484.562012,793.764221 500.018646,788.936157 516.520752,789.857727 
	C533.600952,790.811584 549.220276,797.028992 564.202209,804.960205 
	C579.555969,813.088379 595.324158,820.135925 612.598450,823.144775 
	C616.031494,823.742676 619.501160,824.128540 622.950134,824.637512 
	C624.617126,824.883484 626.903076,823.992126 627.312073,826.737183 
	C627.718323,829.463379 625.487488,829.972900 623.688354,830.743286 
	C614.960022,834.480652 606.041687,837.697998 596.958801,840.465149 
	C573.953979,847.473633 550.375732,851.058350 525.917725,852.323059 
z"/>
<path fill="#000000" opacity="1.000000" stroke="none" 
	d="
M475.177826,581.822144 
	C462.187286,568.874146 449.385101,556.237305 436.730377,543.454407 
	C431.137604,537.804993 429.288574,530.986145 431.690094,523.254883 
	C433.980652,515.880920 439.098785,511.540527 446.566742,510.074951 
	C453.492798,508.715759 459.389709,511.071014 464.303009,515.897888 
	C471.430084,522.899597 478.424469,530.036194 485.513428,537.077026 
	C486.899811,538.454041 488.075653,540.148376 490.410614,540.845093 
	C492.054565,538.509460 491.633240,535.814087 491.633942,533.255188 
	C491.645996,488.947266 491.925598,444.636108 491.439911,400.333374 
	C491.288940,386.565704 499.451050,377.025055 512.325562,376.963562 
	C524.653015,376.904663 533.251160,383.339630 534.075623,399.605865 
	C534.353577,405.088898 534.135681,410.597290 534.135925,416.094116 
	C534.138000,455.404816 534.131348,494.715485 534.155579,534.026184 
	C534.156860,536.158142 533.826660,538.343384 534.804932,540.726868 
	C536.920654,540.333984 538.068298,538.586792 539.390625,537.283752 
	C546.270020,530.504395 553.095581,523.669312 559.869629,516.784546 
	C568.382141,508.132874 580.228149,507.303772 588.460022,514.867737 
	C596.599304,522.346558 597.053101,536.084717 588.848267,544.467346 
	C572.305237,561.369080 555.458008,577.973206 538.736389,594.700195 
	C535.439026,597.998596 531.716675,600.975830 528.930298,604.660706 
	C522.282471,613.452209 505.564026,613.726196 497.919464,604.786194 
	C491.013184,596.709656 482.968719,589.606323 475.177826,581.822144 
z"/>
<path fill="#000000" opacity="1.000000" stroke="none" 
	d="
M519.674316,349.797272 
	C509.919739,354.981476 502.709656,350.745605 502.644714,340.177765 
	C502.593536,331.850464 502.548126,323.521515 502.655121,315.195312 
	C502.739136,308.657928 506.777710,304.586121 512.790527,304.671875 
	C518.855469,304.758331 523.205261,308.883453 523.302795,315.036652 
	C523.442749,323.861816 523.314758,332.690918 523.352356,341.518127 
	C523.365906,344.702728 522.288147,347.366150 519.674316,349.797272 
z"/>
<path fill="#000000" opacity="1.000000" stroke="none" 
	d="
M597.746399,365.819031 
	C597.790161,361.564728 599.840149,358.490234 601.718201,355.375427 
	C604.971619,349.979401 608.135437,344.516632 611.659546,339.299896 
	C615.432800,333.714386 621.161377,332.395355 626.337769,335.487213 
	C631.299011,338.450531 632.816101,344.564117 629.610596,350.312531 
	C626.056824,356.685486 622.061279,362.810516 618.418945,369.136139 
	C615.712402,373.836487 611.854370,376.160522 606.471863,375.265015 
	C601.457825,374.430817 598.764771,371.081696 597.746399,365.819031 
z"/>
<path fill="#000000" opacity="1.000000" stroke="none" 
	d="
M349.035645,626.100647 
	C344.571320,628.752136 340.449005,631.269958 336.253052,633.658325 
	C330.291901,637.051453 323.987671,635.779724 320.901062,630.661804 
	C317.822693,625.557495 319.486816,619.037537 325.012695,615.576721 
	C331.220398,611.688782 337.502289,607.906799 343.882721,604.310730 
	C350.020447,600.851379 356.308350,602.147339 359.282318,607.167175 
	C362.649139,612.850098 360.805511,618.897156 354.486908,622.828613 
	C352.790619,623.884033 351.059784,624.883850 349.035645,626.100647 
z"/>
<path fill="#000000" opacity="1.000000" stroke="none" 
	d="
M325.692627,535.299072 
	C318.910583,535.300354 312.592255,535.402588 306.278961,535.267822 
	C298.503296,535.101929 293.641083,530.685547 293.683319,524.079712 
	C293.724152,517.687683 298.484283,513.713623 306.229126,513.672058 
	C312.545044,513.638184 318.861359,513.653625 325.177429,513.670044 
	C333.868225,513.692627 338.062378,516.950134 338.321777,523.847046 
	C338.580963,530.738098 334.768677,534.326172 325.692627,535.299072 
z"/>
<path fill="#000000" opacity="1.000000" stroke="none" 
	d="
M423.508087,373.901123 
	C416.312683,376.651306 411.929993,375.391632 408.205994,369.473419 
	C404.407288,363.436340 400.707489,357.329742 397.185059,351.128235 
	C393.861725,345.277191 395.172363,338.507172 399.895935,335.620514 
	C405.585693,332.143433 411.383606,333.826904 415.425537,340.323456 
	C419.280823,346.519989 423.142548,352.724396 426.676453,359.105347 
	C429.858673,364.851440 428.848969,369.106659 423.508087,373.901123 
z"/>
<path fill="#000000" opacity="1.000000" stroke="none" 
	d="
M688.964478,529.603455 
	C685.418640,519.863586 689.604492,513.739990 699.454041,513.678650 
	C706.600769,513.634094 713.748535,513.612671 720.894836,513.682373 
	C727.524292,513.747070 731.809753,517.687439 732.116821,523.827942 
	C732.393738,529.364990 728.302185,533.631409 721.901489,534.504944 
	C714.285400,535.544373 706.635132,535.083618 699.005859,534.884094 
	C695.109192,534.782166 691.443176,533.598694 688.964478,529.603455 
z"/>
<path fill="#000000" opacity="1.000000" stroke="none" 
	d="
M706.345215,625.067566 
	C705.719971,633.930481 698.724060,638.439087 691.255493,634.490845 
	C683.784485,630.541138 676.660461,625.849182 669.735962,620.982361 
	C665.168640,617.772278 664.390259,612.201538 666.919006,607.597046 
	C669.288696,603.282166 674.906494,601.022339 679.914551,603.323425 
	C688.381409,607.213989 696.144226,612.423462 703.649048,617.934875 
	C705.694092,619.436768 706.514526,621.970825 706.345215,625.067566 
z"/>
<path fill="#000000" opacity="1.000000" stroke="none" 
	d="
M683.794312,441.040222 
	C680.709778,442.445831 677.979187,443.689148 674.857056,443.331177 
	C670.262207,442.804352 666.923889,440.399017 665.925232,435.910675 
	C664.960815,431.576324 665.188110,427.074341 669.655823,424.439026 
	C677.095459,420.050720 684.892883,416.303284 692.922913,413.164795 
	C698.141052,411.125305 703.527527,413.583374 705.572876,418.132111 
	C707.984741,423.495850 706.296387,429.456543 701.045593,432.388031 
	C695.547791,435.457458 689.793274,438.067291 683.794312,441.040222 
z"/>
<path fill="#000000" opacity="1.000000" stroke="none" 
	d="
M333.984924,412.591187 
	C341.089203,415.982727 347.868164,419.137360 354.512848,422.553070 
	C360.225128,425.489410 362.352264,431.465179 359.873260,436.743866 
	C357.522583,441.749298 351.540833,444.006165 345.803162,441.525452 
	C338.950806,438.562805 332.201050,435.324585 325.585388,431.864288 
	C319.824707,428.851166 317.985565,423.493073 320.280640,417.982513 
	C322.322388,413.080322 327.391846,410.981476 333.984924,412.591187 
z"/>
</svg>